<?xml version="1.0" encoding="iso-8859-1"?>
<!-- Uploaded to: SVG Repo, www.svgrepo.com, Generator: SVG Repo Mixer Tools -->
<!DOCTYPE svg PUBLIC "-//W3C//DTD SVG 1.1//EN" "http://www.w3.org/Graphics/SVG/1.1/DTD/svg11.dtd">
<svg height="70px" width="70px" version="1.1" id="Capa_1" xmlns="http://www.w3.org/2000/svg" xmlns:xlink="http://www.w3.org/1999/xlink" 
	 viewBox="0 0 52.963 52.963" xml:space="preserve">
<g>
	<path style="fill:#794f42;" d="M47.375,33.155c0.007-0.052,0.03-0.092,0.029-0.15c-0.015-1.582-0.029-3.163-0.04-4.745
		c-0.004-0.548-0.432-0.89-0.942-0.942c-6.745-0.693-13.438-0.816-20.166,0.003c-0.069-0.096-0.153-0.188-0.269-0.266
		c-2.079-1.389-1.461-4.677-3.736-6.017c-1.206-0.711-2.719-0.516-4.05-0.469c-2.076,0.074-4.173,0.152-6.241,0.341
		c-0.018,0.002-0.031,0.011-0.048,0.013c-0.275-0.566-0.546-1.132-0.811-1.697C8.946,14.623,6.833,9.992,4.377,5.541
		c0.086-0.117,0.141-0.256,0.124-0.383C4.344,3.981,2.812,3.89,1.904,4.224C1.047,4.54,0.405,5.237,0.245,6.115
		C0.049,6.27-0.065,6.513,0.039,6.802c3.434,9.547,7.786,19.202,12.457,28.23c-1.185,1.114-2.042,2.596-2.354,4.321
		c-0.751,4.15,2.069,8.637,6.266,9.428c3.939,0.742,8.231-1.879,9.051-5.864c0.061-0.297,0.098-0.592,0.122-0.886
		c4.117,0.535,8.222,1.056,12.376,1.327c0.236,0.015,0.41-0.06,0.54-0.174c1.239,2.546,3.889,4.432,6.753,4.484
		c3.816,0.069,7.301-3.145,7.679-6.903C53.279,37.308,50.762,33.762,47.375,33.155z M1.499,6.649c0.094-0.505,0.444-0.853,0.94-1
		c0.387-0.114,0.703,0.03,1.038,0.113c1.642,4.233,3.576,8.335,5.493,12.451c2.296,4.929,4.315,10.234,7.198,14.845
		c-1.019,0.246-1.98,0.684-2.825,1.287C10.161,24.966,6.144,15.37,1.499,6.649z M17.181,46.744
		c-3.235-0.411-5.519-3.782-4.953-6.967c0.504-2.841,2.882-4.693,5.537-5.415c0.072,0.078,0.161,0.147,0.278,0.197
		c2.622,1.125,5.163,3.306,5.43,6.335c-0.567-0.017-0.53,0.795,0.004,0.864l0.01,0.001C23.249,44.813,20.248,47.134,17.181,46.744z
		 M37.761,40.2c0.008,0.511,0.078,1.013,0.197,1.502h0c-4.122-0.417-8.24-0.58-12.37-0.731c-0.21-3.305-2.611-6.25-5.603-7.647
		c-0.038-0.162-0.152-0.301-0.377-0.346c-0.267-0.054-0.535-0.094-0.802-0.12c-0.014-0.004-0.027-0.01-0.041-0.014
		c-0.151-0.047-0.292-0.038-0.426-0.008c-0.391-0.015-0.777,0.005-1.159,0.046c-0.004-0.037-0.001-0.072-0.014-0.112
		c-1.18-3.639-2.936-7.127-4.639-10.591c3.096,0.066,8.733-0.697,9.862,2.282c0.637,1.681,0.953,3.32,2.618,4.271
		c0.005,0.003,0.009,0.002,0.014,0.005c0.113,0.086,0.255,0.147,0.451,0.142c6.681-0.199,13.348-0.237,20.014,0.259
		c0.011,1.262,0.021,2.524,0.029,3.786c-0.144-0.141-0.336-0.238-0.584-0.239C41.009,32.664,37.697,36.304,37.761,40.2z
		 M45.251,45.38c-2.682-0.054-5.164-2.499-5.26-5.18c-0.111-3.095,2.482-5.057,5.176-5.777c0.266-0.071,0.436-0.238,0.533-0.437
		c0.047,0.039,0.101,0.074,0.165,0.099c2.508,1.01,4.851,3.043,4.828,5.978C50.671,42.868,48.081,45.437,45.251,45.38z"/>
	<path style="fill:#1D1D1B;" d="M48.304,40c-0.17-1.151-1.276-2.526-2.507-2.449c-0.052-0.103-0.15-0.178-0.291-0.167
		c-1.562,0.131-2.875,1.219-2.863,2.88c0.011,1.602,1.48,2.726,3.012,2.695C47.252,42.928,48.545,41.627,48.304,40z M45.496,41.2
		c-1.498-0.09-1.485-1.793-0.676-2.668c0.072,0.204,0.226,0.384,0.446,0.461c0.644,0.224,1.273,0.431,1.343,1.237
		C46.667,40.9,46.112,41.237,45.496,41.2z"/>
	<path style="fill:#1D1D1B;" d="M19.741,39.598c-0.458-0.531-1.31-0.831-2.126-0.823c-0.002-0.001-0.003-0.003-0.005-0.004
		c-1.836-1.085-3.76,0.596-3.475,2.582c0.286,1.993,2.451,3.381,4.372,2.634C20.169,43.341,20.96,41.015,19.741,39.598z
		 M17.856,42.441c-0.854,0.297-1.837-0.355-2.066-1.182c-0.036-0.129-0.049-0.261-0.049-0.393c0.231,0.319,0.672,0.446,1.045,0.094
		c0.431-0.406,1.107-0.926,1.669-0.332C18.999,41.203,18.505,42.215,17.856,42.441z"/>
</g>
</svg>